<svg width="153" height="47" viewBox="0 0 153 47" fill="none" xmlns="http://www.w3.org/2000/svg">
<g filter="url(#filter0_d_1_372)">
<rect x="4.91602" width="144.084" height="38.1013" rx="5" fill="#242424"/>
<path d="M36.9145 18.2979C36.8866 15.1995 39.4522 13.6921 39.5695 13.6219C38.1165 11.5041 35.8644 11.2147 35.073 11.1917C33.1816 10.9927 31.3469 12.3232 30.3833 12.3232C29.4006 12.3232 27.9168 11.2109 26.3177 11.2436C24.2599 11.2753 22.3347 12.4664 21.2789 14.316C19.0999 18.0874 20.725 23.6295 22.8127 26.678C23.857 28.1719 25.0772 29.8379 26.6744 29.7793C28.237 29.7158 28.8207 28.7843 30.7064 28.7843C32.5748 28.7843 33.1229 29.7793 34.7519 29.7418C36.4289 29.7158 37.4847 28.2421 38.4925 26.7356C39.6993 25.0254 40.1839 23.3392 40.2032 23.2527C40.1647 23.2392 36.9472 22.0106 36.9145 18.2979ZM33.8374 9.18631C34.6778 8.13556 35.2529 6.70604 35.0932 5.25537C33.8768 5.30921 32.3556 6.09655 31.4796 7.12422C30.7045 8.02981 30.0122 9.51413 30.191 10.91C31.5574 11.0119 32.9604 10.2207 33.8374 9.18631Z" fill="white"/>
<path d="M59.547 29.565H57.3632L56.167 25.8071H52.009L50.8695 29.565H48.7434L52.8639 16.7714H55.4082L59.547 29.565ZM55.8064 24.2305L54.7246 20.8898C54.6101 20.5485 54.3947 19.7449 54.0793 18.4797H54.0409C53.9139 19.0238 53.711 19.8275 53.4331 20.8898L52.3696 24.2305H55.8064ZM70.1226 24.839C70.1226 26.4079 69.6966 27.6481 68.8437 28.5585C68.0802 29.3689 67.1311 29.7736 65.9993 29.7736C64.7771 29.7736 63.8982 29.3381 63.3645 28.4652V33.3056H61.3144V23.372C61.3144 22.3866 61.2884 21.3763 61.2384 20.3399H63.0414L63.1558 21.8021H63.1943C63.878 20.7004 64.9156 20.1496 66.308 20.1496C67.3965 20.1496 68.3052 20.5793 69.0322 21.4397C69.7582 22.302 70.1226 23.4345 70.1226 24.839ZM68.034 24.914C68.034 24.0161 67.8321 23.2759 67.4263 22.6923C66.983 22.0857 66.3878 21.7819 65.6416 21.7819C65.1358 21.7819 64.6761 21.9511 64.2655 22.2847C63.854 22.6212 63.5847 23.0605 63.4588 23.6047C63.4025 23.8081 63.3706 24.0176 63.3636 24.2286V25.7677C63.3636 26.4377 63.5693 27.004 63.9809 27.4673C64.3925 27.9288 64.9271 28.1605 65.5848 28.1605C66.357 28.1605 66.958 27.8615 67.3878 27.2683C67.8186 26.6733 68.034 25.8888 68.034 24.914ZM80.7358 24.839C80.7358 26.4079 80.3098 27.6481 79.4569 28.5585C78.6924 29.3689 77.7443 29.7736 76.6115 29.7736C75.3893 29.7736 74.5104 29.3381 73.9767 28.4652V33.3056H71.9266V23.372C71.9266 22.3866 71.9006 21.3763 71.8506 20.3399H73.6536L73.7681 21.8021H73.8065C74.4893 20.7004 75.5268 20.1496 76.9202 20.1496C78.0077 20.1496 78.9165 20.5793 79.6453 21.4397C80.3704 22.302 80.7358 23.4345 80.7358 24.839ZM78.6462 24.914C78.6462 24.0161 78.4433 23.2759 78.0375 22.6923C77.5943 22.0857 77.0009 21.7819 76.2547 21.7819C75.7489 21.7819 75.2893 21.9511 74.8768 22.2847C74.4652 22.6212 74.1969 23.0605 74.071 23.6047C74.0084 23.8584 73.9748 24.0651 73.9748 24.2286V25.7677C73.9748 26.4377 74.1815 27.004 74.5912 27.4673C75.0027 27.9278 75.5374 28.1605 76.1971 28.1605C76.9702 28.1605 77.5712 27.8615 78.0001 27.2683C78.4308 26.6733 78.6462 25.8888 78.6462 24.914ZM92.6019 25.9763C92.6019 27.0655 92.2211 27.9509 91.4644 28.6344C90.6316 29.3804 89.469 29.7544 87.9786 29.7544C86.6016 29.7544 85.4976 29.489 84.6649 28.9574L85.139 27.2491C86.0381 27.7817 87.0256 28.047 88.1007 28.047C88.8738 28.047 89.4748 27.8721 89.9037 27.525C90.3335 27.177 90.5508 26.7117 90.5508 26.1311C90.5508 25.611 90.371 25.1755 90.0181 24.8207C89.6633 24.467 89.0767 24.1372 88.2526 23.8344C86.0121 22.999 84.8909 21.7771 84.8909 20.1698C84.8909 19.12 85.287 18.2605 86.0775 17.5886C86.8679 16.9175 87.9161 16.582 89.22 16.582C90.3845 16.582 91.3547 16.7849 92.125 17.1896L91.6105 18.8604C90.8855 18.4682 90.0672 18.2721 89.1517 18.2721C88.4286 18.2721 87.8612 18.4499 87.4555 18.8037C87.1141 19.12 86.941 19.5055 86.941 19.9631C86.941 20.4678 87.1381 20.8869 87.5305 21.2157C87.8709 21.5185 88.4921 21.8483 89.3902 22.202C90.4922 22.6462 91.3018 23.1634 91.8201 23.7575C92.3423 24.3516 92.6019 25.0928 92.6019 25.9763ZM99.3975 21.8781H97.1378V26.357C97.1378 27.4962 97.5359 28.0643 98.334 28.0643C98.7004 28.0643 99.0042 28.0336 99.2446 27.9692L99.3014 29.5256C98.8975 29.6765 98.3657 29.7524 97.7071 29.7524C96.8974 29.7524 96.2647 29.5054 95.8079 29.0112C95.3531 28.5171 95.1242 27.6894 95.1242 26.5243V21.8742H93.778V20.3361H95.1242V18.647L97.1378 18.0394V20.3361H99.3975V21.8781ZM109.573 24.8765C109.573 26.2945 109.167 27.4587 108.358 28.3691C107.511 29.3064 106.384 29.7736 104.979 29.7736C103.623 29.7736 102.545 29.3246 101.741 28.4277C100.937 27.5289 100.535 26.3964 100.535 25.0303C100.535 23.6008 100.951 22.4299 101.778 21.5195C102.608 20.6081 103.726 20.1525 105.131 20.1525C106.485 20.1525 107.572 20.6024 108.395 21.5003C109.182 22.3712 109.573 23.496 109.573 24.8765ZM107.448 24.9236C107.448 24.0786 107.265 23.3537 106.899 22.7471C106.469 22.0146 105.854 21.6483 105.057 21.6483C104.235 21.6483 103.605 22.0146 103.177 22.7471C102.809 23.3537 102.627 24.0911 102.627 24.9621C102.627 25.808 102.809 26.5348 103.177 27.1395C103.62 27.8721 104.238 28.2383 105.039 28.2383C105.823 28.2383 106.437 27.8644 106.882 27.1212C107.259 26.5002 107.448 25.7706 107.448 24.9236ZM116.24 22.1424C116.027 22.104 115.81 22.085 115.594 22.0857C114.873 22.0857 114.315 22.3568 113.922 22.9029C113.582 23.3835 113.411 23.9911 113.411 24.7246V29.565H111.361V23.2451C111.363 22.2767 111.343 21.3084 111.301 20.3409H113.087L113.162 22.1059H113.219C113.436 21.4993 113.776 21.01 114.244 20.6437C114.671 20.3237 115.191 20.1503 115.725 20.1496C115.915 20.1496 116.086 20.163 116.238 20.1871L116.24 22.1424ZM125.409 24.516C125.414 24.8276 125.389 25.1389 125.334 25.4456H119.183C119.206 26.357 119.505 27.0549 120.076 27.5356C120.594 27.9643 121.264 28.1797 122.087 28.1797C122.998 28.1797 123.829 28.0355 124.576 27.7442L124.897 29.166C124.024 29.5467 122.993 29.7361 121.804 29.7361C120.373 29.7361 119.25 29.315 118.432 28.4748C117.617 27.6336 117.208 26.5031 117.208 25.087C117.208 23.6969 117.588 22.5385 118.349 21.6147C119.145 20.6283 120.221 20.1352 121.575 20.1352C122.905 20.1352 123.912 20.6283 124.595 21.6147C125.137 22.3962 125.409 23.3653 125.409 24.516ZM123.454 23.9844C123.468 23.3758 123.334 22.8519 123.056 22.4087C122.701 21.8377 122.155 21.5531 121.423 21.5531C120.753 21.5531 120.207 21.831 119.791 22.3885C119.45 22.8317 119.247 23.3643 119.184 23.9825L123.454 23.9844Z" fill="white"/>
<path d="M51.4185 12.2484C50.8482 12.2484 50.3549 12.2205 49.9443 12.1734V5.98815C50.5186 5.89946 51.0989 5.85574 51.68 5.8574C54.0311 5.8574 55.1139 7.0139 55.1139 8.8991C55.1139 11.0737 53.835 12.2484 51.4185 12.2484ZM51.7627 6.65051C51.4454 6.65051 51.1752 6.66974 50.9511 6.71588V11.4178C51.0723 11.437 51.305 11.4457 51.6319 11.4457C53.1724 11.4457 54.0494 10.569 54.0494 8.92698C54.0494 7.46285 53.2561 6.65051 51.7627 6.65051ZM58.4881 12.2955C57.1631 12.2955 56.3043 11.3063 56.3043 9.9633C56.3043 8.56359 57.1813 7.56571 58.5631 7.56571C59.869 7.56571 60.7469 8.50783 60.7469 9.88928C60.7469 11.3063 59.8421 12.2955 58.4881 12.2955ZM58.5266 8.3021C57.7987 8.3021 57.3323 8.98273 57.3323 9.93446C57.3323 10.8679 57.8083 11.5486 58.517 11.5486C59.2257 11.5486 59.7017 10.8208 59.7017 9.91524C59.7017 8.99235 59.2353 8.3021 58.5266 8.3021ZM68.3032 7.65896L66.8848 12.1927H65.9607L65.3732 10.2238C65.2271 9.74224 65.1055 9.25357 65.0087 8.7597H64.9895C64.9155 9.25383 64.7751 9.74892 64.626 10.2238L64.001 12.1927H63.0673L61.7326 7.65896H62.7682L63.2817 9.8143C63.4029 10.3277 63.5048 10.8122 63.5894 11.2698H63.6087C63.6827 10.8881 63.8039 10.4113 63.9818 9.82391L64.626 7.65992H65.4472L66.0636 9.77776C66.2127 10.2911 66.3338 10.7949 66.4281 11.2707H66.455C66.5204 10.8045 66.6233 10.3094 66.7627 9.77776L67.3137 7.65992L68.3032 7.65896ZM73.5247 12.1927H72.5169V9.58934C72.5169 8.78758 72.2092 8.38574 71.6024 8.38574C71.0053 8.38574 70.5947 8.8991 70.5947 9.49609V12.1927H69.5869V8.95485C69.5869 8.55397 69.5773 8.12425 69.5494 7.658H70.436L70.4831 8.35786H70.511C70.7822 7.87334 71.3322 7.56571 71.9486 7.56571C72.9006 7.56571 73.5256 8.29345 73.5256 9.47783L73.5247 12.1927ZM76.3037 12.1927H75.295V5.57861H76.3037V12.1927ZM79.9779 12.2955C78.6538 12.2955 77.7942 11.3063 77.7942 9.9633C77.7942 8.56359 78.6711 7.56571 80.052 7.56571C81.3588 7.56571 82.2358 8.50783 82.2358 9.88928C82.2367 11.3063 81.3309 12.2955 79.9779 12.2955ZM80.0154 8.3021C79.2875 8.3021 78.8211 8.98273 78.8211 9.93446C78.8211 10.8679 79.2981 11.5486 80.0049 11.5486C80.7145 11.5486 81.1896 10.8208 81.1896 9.91524C81.1905 8.99235 80.7251 8.3021 80.0154 8.3021ZM86.2091 12.1927L86.136 11.6707H86.1091C85.8014 12.0908 85.3523 12.2955 84.7831 12.2955C83.9705 12.2955 83.3935 11.7264 83.3935 10.9612C83.3935 9.84218 84.3638 9.26345 86.0437 9.26345V9.17981C86.0437 8.58281 85.7273 8.28384 85.1023 8.28384C84.6552 8.28384 84.2628 8.39631 83.9176 8.62031L83.7128 7.95794C84.132 7.69645 84.6552 7.56571 85.2696 7.56571C86.4543 7.56571 87.0524 8.19059 87.0524 9.44129V11.1111C87.0524 11.5687 87.0726 11.9235 87.1178 12.1936L86.2091 12.1927ZM86.0706 9.93446C84.9513 9.93446 84.3898 10.2056 84.3898 10.8487C84.3898 11.3246 84.6792 11.5572 85.0812 11.5572C85.5937 11.5572 86.0706 11.1659 86.0706 10.6343V9.93446ZM91.946 12.1927L91.8989 11.4649H91.871C91.5816 12.0148 91.095 12.2955 90.4151 12.2955C89.3218 12.2955 88.5121 11.3342 88.5121 9.98157C88.5121 8.56359 89.3516 7.56475 90.4978 7.56475C91.1046 7.56475 91.5344 7.76952 91.7768 8.18097H91.797V5.57861H92.8057V10.9708C92.8057 11.4092 92.8162 11.8197 92.8432 12.1927H91.946ZM91.797 9.52493C91.797 8.89044 91.3767 8.34921 90.7353 8.34921C89.9882 8.34921 89.5314 9.01157 89.5314 9.94408C89.5314 10.8583 90.0055 11.4842 90.7152 11.4842C91.3489 11.4842 91.797 10.9333 91.797 10.2805V9.52493ZM99.2013 12.2955C97.8771 12.2955 97.0184 11.3063 97.0184 9.9633C97.0184 8.56359 97.8954 7.56571 99.2763 7.56571C100.583 7.56571 101.46 8.50783 101.46 9.88928C101.461 11.3063 100.556 12.2955 99.2013 12.2955ZM99.2388 8.3021C98.5118 8.3021 98.0454 8.98273 98.0454 9.93446C98.0454 10.8679 98.5214 11.5486 99.2291 11.5486C99.9388 11.5486 100.414 10.8208 100.414 9.91524C100.416 8.99235 99.9494 8.3021 99.2388 8.3021ZM106.88 12.1927H105.871V9.58934C105.871 8.78758 105.563 8.38574 104.956 8.38574C104.359 8.38574 103.95 8.8991 103.95 9.49609V12.1927H102.941V8.95485C102.941 8.55397 102.931 8.12425 102.903 7.658H103.79L103.837 8.35786H103.865C104.135 7.87334 104.686 7.56475 105.302 7.56475C106.254 7.56475 106.88 8.29249 106.88 9.47686V12.1927ZM113.66 8.41458H112.551V10.6161C112.551 11.1765 112.745 11.4563 113.138 11.4563C113.316 11.4563 113.465 11.437 113.585 11.4092L113.613 12.1744C113.418 12.2494 113.156 12.2869 112.831 12.2869C112.037 12.2869 111.562 11.8485 111.562 10.7007V8.41458H110.9V7.65896H111.562V6.82836L112.551 6.52938V7.658H113.66V8.41458ZM118.995 12.1927H117.988V9.60857C117.988 8.79719 117.681 8.3867 117.074 8.3867C116.551 8.3867 116.065 8.74144 116.065 9.45956V12.1927H115.058V5.57861H116.065V8.3021H116.085C116.402 7.80797 116.862 7.56475 117.449 7.56475C118.408 7.56475 118.995 8.31075 118.995 9.49609V12.1927ZM124.461 10.1681H121.436C121.456 11.0266 122.024 11.5111 122.865 11.5111C123.312 11.5111 123.724 11.4361 124.087 11.2967L124.244 11.9965C123.815 12.183 123.31 12.2763 122.723 12.2763C121.305 12.2763 120.465 11.3803 120.465 9.99118C120.465 8.60108 121.325 7.5561 122.609 7.5561C123.768 7.5561 124.495 8.41458 124.495 9.71143C124.502 9.86448 124.49 10.0178 124.461 10.1681ZM123.536 9.44995C123.536 8.75009 123.184 8.25596 122.539 8.25596C121.96 8.25596 121.503 8.7597 121.437 9.44995H123.536Z" fill="white"/>
</g>
<defs>
<filter id="filter0_d_1_372" x="0.916016" y="0" width="152.084" height="46.1013" filterUnits="userSpaceOnUse" color-interpolation-filters="sRGB">
<feFlood flood-opacity="0" result="BackgroundImageFix"/>
<feColorMatrix in="SourceAlpha" type="matrix" values="0 0 0 0 0 0 0 0 0 0 0 0 0 0 0 0 0 0 127 0" result="hardAlpha"/>
<feOffset dy="4"/>
<feGaussianBlur stdDeviation="2"/>
<feComposite in2="hardAlpha" operator="out"/>
<feColorMatrix type="matrix" values="0 0 0 0 0 0 0 0 0 0 0 0 0 0 0 0 0 0 0.25 0"/>
<feBlend mode="normal" in2="BackgroundImageFix" result="effect1_dropShadow_1_372"/>
<feBlend mode="normal" in="SourceGraphic" in2="effect1_dropShadow_1_372" result="shape"/>
</filter>
</defs>
</svg>
