<svg width="67" height="112" viewBox="0 0 67 112" fill="none" xmlns="http://www.w3.org/2000/svg">
<g filter="url(#filter0_d_1_259)">
<rect x="4" width="59" height="104" rx="29.5" fill="#343236"/>
</g>
<g clip-path="url(#clip0_1_259)">
<path d="M29.6117 59.75L33 64.5507L36.3883 59.75H29.6117ZM41.4281 56.729C41.5992 56.8501 41.7153 57.0342 41.7509 57.2407C41.7865 57.4473 41.7388 57.6596 41.6181 57.831L33.646 69.1249C33.5729 69.2282 33.476 69.3124 33.3636 69.3705C33.2512 69.4287 33.1265 69.459 33 69.459C32.8735 69.459 32.7488 69.4287 32.6364 69.3705C32.524 69.3124 32.4271 69.2282 32.354 69.1249L24.3803 57.831C24.2968 57.7124 24.2474 57.5732 24.2376 57.4284C24.2278 57.2837 24.258 57.1391 24.3248 57.0103C24.3916 56.8816 24.4926 56.7737 24.6166 56.6984C24.7406 56.6231 24.8828 56.5833 25.0279 56.5834H40.9721C41.1355 56.5837 41.2948 56.6346 41.4281 56.729ZM36.3883 45.5H29.6117L33 50.3007L36.3883 45.5ZM33.646 54.8749C33.5729 54.9782 33.476 55.0624 33.3636 55.1205C33.2512 55.1787 33.1265 55.209 33 55.209C32.8735 55.209 32.7488 55.1787 32.6364 55.1205C32.524 55.0624 32.4271 54.9782 32.354 54.8749L24.3803 43.581C24.2968 43.4624 24.2474 43.3232 24.2376 43.1784C24.2278 43.0337 24.258 42.8891 24.3248 42.7603C24.3916 42.6316 24.4926 42.5237 24.6166 42.4484C24.7406 42.3731 24.8828 42.3333 25.0279 42.3334H40.9721C41.1171 42.3333 41.2594 42.3731 41.3834 42.4484C41.5074 42.5237 41.6083 42.6316 41.6752 42.7603C41.742 42.8891 41.7722 43.0337 41.7624 43.1784C41.7526 43.3232 41.7032 43.4624 41.6197 43.581L33.646 54.8749Z" fill="white"/>
</g>
<defs>
<filter id="filter0_d_1_259" x="0" y="0" width="67" height="112" filterUnits="userSpaceOnUse" color-interpolation-filters="sRGB">
<feFlood flood-opacity="0" result="BackgroundImageFix"/>
<feColorMatrix in="SourceAlpha" type="matrix" values="0 0 0 0 0 0 0 0 0 0 0 0 0 0 0 0 0 0 127 0" result="hardAlpha"/>
<feOffset dy="4"/>
<feGaussianBlur stdDeviation="2"/>
<feComposite in2="hardAlpha" operator="out"/>
<feColorMatrix type="matrix" values="0 0 0 0 0 0 0 0 0 0 0 0 0 0 0 0 0 0 0.25 0"/>
<feBlend mode="normal" in2="BackgroundImageFix" result="effect1_dropShadow_1_259"/>
<feBlend mode="normal" in="SourceGraphic" in2="effect1_dropShadow_1_259" result="shape"/>
</filter>
<clipPath id="clip0_1_259">
<rect width="38" height="38" fill="white" transform="matrix(0 -1 1 0 14 74)"/>
</clipPath>
</defs>
</svg>
