<svg width="67" height="65" viewBox="0 0 67 65" fill="none" xmlns="http://www.w3.org/2000/svg">
<path d="M0.457368 60.8592C0.262114 61.0545 0.26213 61.3711 0.457401 61.5663L3.63953 64.7481C3.8348 64.9434 4.15139 64.9434 4.34664 64.7481C4.54189 64.5528 4.54188 64.2362 4.34661 64.041L1.51804 61.2127L4.34634 58.3841C4.54159 58.1889 4.54157 57.8723 4.3463 57.677C4.15103 57.4818 3.83445 57.4818 3.6392 57.6771L0.457368 60.8592ZM38.3876 18.5101L38.6631 18.0928L38.3876 18.5101ZM22.0567 57.2405L22.3053 57.6743L22.0567 57.2405ZM56.2883 32.2376L56.5689 32.6515L56.2883 32.2376ZM19.3946 35.269L19.8618 35.0907L19.3946 35.269ZM0.810938 61.2127C0.810961 61.7127 0.810979 61.7127 0.810999 61.7127C0.811009 61.7127 0.811032 61.7127 0.811051 61.7127C0.811093 61.7127 0.811143 61.7127 0.811204 61.7127C0.811326 61.7127 0.811491 61.7127 0.811695 61.7127C0.812106 61.7127 0.812682 61.7127 0.813421 61.7127C0.814901 61.7127 0.81704 61.7127 0.81983 61.7127C0.825408 61.7127 0.833592 61.7127 0.844325 61.7126C0.865791 61.7126 0.897457 61.7124 0.938883 61.7121C1.02174 61.7114 1.14364 61.7101 1.30108 61.7075C1.61595 61.7023 2.07305 61.6919 2.64427 61.6712L2.60803 60.6719C2.04399 60.6923 1.59348 60.7025 1.28456 60.7076C1.1301 60.7102 1.01107 60.7115 0.930952 60.7121C0.890896 60.7124 0.860571 60.7126 0.840419 60.7127C0.830341 60.7127 0.822808 60.7127 0.817873 60.7127C0.815404 60.7127 0.813586 60.7127 0.812424 60.7127C0.811843 60.7127 0.811426 60.7127 0.811174 60.7127C0.811048 60.7127 0.810963 60.7127 0.81092 60.7127C0.810898 60.7127 0.810886 60.7127 0.810886 60.7127C0.810885 60.7127 0.810892 60.7127 0.810892 60.7127C0.810902 60.7127 0.810914 60.7127 0.810938 61.2127ZM6.28964 61.4602C7.41004 61.3715 8.64294 61.2516 9.92857 61.0894L9.80344 60.0973C8.53554 60.2572 7.31825 60.3756 6.21073 60.4633L6.28964 61.4602ZM13.5487 60.529C14.7577 60.3032 15.9674 60.0339 17.1326 59.7125L16.8667 58.7485C15.7337 59.061 14.5521 59.3243 13.3651 59.546L13.5487 60.529ZM20.6311 58.5057C21.2206 58.2507 21.7818 57.9742 22.3053 57.6743L21.8081 56.8066C21.3217 57.0853 20.7946 57.3454 20.2341 57.5879L20.6311 58.5057ZM22.3053 57.6743C22.9031 57.3318 23.5173 56.9652 24.1436 56.5765L23.6162 55.7269C22.9995 56.1097 22.3954 56.4702 21.8081 56.8066L22.3053 57.6743ZM27.7232 54.1966C28.8607 53.3903 30.0107 52.5265 31.1504 51.6145L30.5257 50.8337C29.4015 51.7332 28.267 52.5853 27.1449 53.3808L27.7232 54.1966ZM34.4212 48.8293C35.4847 47.8638 36.5184 46.8609 37.5015 45.8286L36.7774 45.139C35.8125 46.1521 34.7962 47.1382 33.749 48.0889L34.4212 48.8293ZM40.3321 42.5838C41.2497 41.4249 42.0863 40.2403 42.8152 39.0404L41.9605 38.5212C41.2559 39.6811 40.4438 40.8318 39.5481 41.9631L40.3321 42.5838ZM44.7527 35.1489C45.295 33.7349 45.6571 32.3097 45.7938 30.8905L44.7984 30.7946C44.6717 32.11 44.3345 33.4468 43.819 34.7908L44.7527 35.1489ZM45.4332 26.4876C45.0563 25.1263 44.4185 23.8002 43.4868 22.5258L42.6796 23.116C43.5431 24.2972 44.1261 25.5144 44.4694 26.7544L45.4332 26.4876ZM40.4298 19.3785C39.886 18.9405 39.2976 18.5117 38.6631 18.0928L38.1121 18.9273C38.7221 19.33 39.2848 19.7403 39.8026 20.1573L40.4298 19.3785ZM38.6631 18.0928C38.1169 17.7322 37.5787 17.3996 37.0487 17.0943L36.5495 17.9608C37.0611 18.2555 37.5821 18.5774 38.1121 18.9273L38.6631 18.0928ZM33.6164 15.4432C32.3203 14.9481 31.0837 14.6278 29.9117 14.4678L29.7764 15.4587C30.8647 15.6072 32.027 15.9065 33.2595 16.3773L33.6164 15.4432ZM26.0426 14.5477C24.7016 14.8111 23.4959 15.3256 22.4403 16.0486L23.0054 16.8737C23.9484 16.2277 25.0274 15.7662 26.2353 15.529L26.0426 14.5477ZM19.7185 18.8305C19.0223 19.869 18.4765 21.0491 18.0878 22.331L19.0447 22.6212C19.4077 21.4243 19.9133 20.3358 20.5491 19.3874L19.7185 18.8305ZM17.4177 26.1043C17.337 27.3322 17.3749 28.6113 17.5362 29.9188L18.5287 29.7963C18.3747 28.5483 18.3392 27.3323 18.4155 26.1698L17.4177 26.1043ZM18.3168 33.6428C18.4944 34.2433 18.6978 34.8454 18.9275 35.4472L19.8618 35.0907C19.6412 34.5127 19.4461 33.9349 19.2758 33.3592L18.3168 33.6428ZM18.9275 35.4472C19.2054 36.1756 19.5138 36.8498 19.851 37.4721L20.7302 36.9957C20.4155 36.4148 20.1251 35.7809 19.8618 35.0907L18.9275 35.4472ZM22.6065 40.9641C23.7816 41.9752 25.1055 42.6697 26.5348 43.0982L26.822 42.1403C25.5178 41.7493 24.3205 41.1197 23.2587 40.2061L22.6065 40.9641ZM30.9387 43.6428C32.3472 43.6107 33.8064 43.4112 35.2891 43.0823L35.0725 42.106C33.6404 42.4237 32.2471 42.6127 30.9159 42.643L30.9387 43.6428ZM39.4716 41.8566C40.8127 41.377 42.1577 40.8204 43.4885 40.2111L43.0722 39.3018C41.7633 39.9011 40.445 40.4465 39.1349 40.915L39.4716 41.8566ZM47.364 38.2799C48.6523 37.5889 49.9104 36.8681 51.1206 36.1415L50.6058 35.2842C49.4075 36.0036 48.1635 36.7163 46.8913 37.3986L47.364 38.2799ZM54.7782 33.8445C55.3976 33.4392 55.9956 33.0401 56.5689 32.6515L56.0078 31.8238C55.4386 32.2096 54.8452 32.6057 54.2307 33.0077L54.7782 33.8445ZM56.5689 32.6515C57.1913 32.2296 57.7759 31.7818 58.3248 31.3111L57.6739 30.552C57.1534 30.9982 56.5988 31.4232 56.0078 31.8238L56.5689 32.6515ZM61.3183 28.0871C62.2035 26.8894 62.9393 25.6176 63.5482 24.3044L62.641 23.8838C62.0577 25.1416 61.3555 26.3543 60.5141 27.4927L61.3183 28.0871ZM65.0402 20.1902C65.4315 18.7632 65.7097 17.3258 65.9005 15.9145L64.9095 15.7806C64.7239 17.1537 64.4538 18.547 64.0758 19.9258L65.0402 20.1902ZM66.2423 11.5764C66.2832 10.0248 66.24 8.55915 66.1534 7.23789L65.1555 7.30332C65.2404 8.59843 65.2826 10.0332 65.2427 11.5501L66.2423 11.5764ZM65.6809 2.92307C65.5765 2.25038 65.4778 1.71558 65.4049 1.34776C65.3685 1.16384 65.3385 1.02163 65.3175 0.924756C65.3069 0.876317 65.2987 0.83921 65.2929 0.813893C65.2901 0.801232 65.2879 0.791517 65.2863 0.784806C65.2855 0.781449 65.2849 0.778845 65.2845 0.776995C65.2843 0.776074 65.2841 0.775339 65.284 0.774793C65.2839 0.774522 65.2839 0.774297 65.2838 0.774121C65.2838 0.774031 65.2838 0.773955 65.2838 0.773893C65.2838 0.773859 65.2838 0.77382 65.2838 0.773803C65.2837 0.77377 65.2837 0.773736 64.797 0.887949C64.3102 1.00216 64.3102 1.00213 64.3102 1.00211C64.3102 1.0021 64.3102 1.00208 64.3102 1.00207C64.3102 1.00206 64.3102 1.00205 64.3102 1.00206C64.3102 1.00207 64.3102 1.00213 64.3102 1.00224C64.3103 1.00246 64.3103 1.00287 64.3105 1.00346C64.3108 1.00465 64.3112 1.0066 64.3118 1.00929C64.3131 1.01467 64.315 1.02304 64.3175 1.03435C64.3226 1.05696 64.3303 1.09129 64.3402 1.13689C64.36 1.22809 64.3888 1.36437 64.424 1.5421C64.4944 1.89757 64.5906 2.41867 64.6927 3.07645L65.6809 2.92307Z" fill="white"/>
</svg>
