<svg width="159" height="47" viewBox="0 0 159 47" fill="none" xmlns="http://www.w3.org/2000/svg">
<g filter="url(#filter0_d_1_358)">
<rect x="4" width="150.215" height="38.1013" rx="5" fill="#242424"/>
<path fill-rule="evenodd" clip-rule="evenodd" d="M18.0451 6.09883C17.7475 6.41836 17.5764 6.91015 17.5764 7.5492V30.2799C17.5764 30.9189 17.7475 31.4107 18.0562 31.7191L18.1369 31.7872L30.8865 19.0507V18.7645L18.1257 6.03076L18.0451 6.09883Z" fill="url(#paint0_linear_1_358)"/>
<path fill-rule="evenodd" clip-rule="evenodd" d="M35.1283 23.313L30.8756 19.0633V18.766L35.1297 14.5164L35.2215 14.5733L40.2529 17.4296C41.6936 18.2409 41.6936 19.5773 40.2529 20.3998L35.2215 23.256C35.2201 23.256 35.1283 23.313 35.1283 23.313Z" fill="url(#paint1_linear_1_358)"/>
<path fill-rule="evenodd" clip-rule="evenodd" d="M35.22 23.2562L30.8755 18.9148L18.0452 31.7319C18.5138 32.2348 19.3023 32.2918 20.184 31.8L35.22 23.2562Z" fill="url(#paint2_linear_1_358)"/>
<path fill-rule="evenodd" clip-rule="evenodd" d="M35.22 14.5746L20.184 6.04189C19.3037 5.53898 18.5138 5.60705 18.0452 6.10996L30.8741 18.9146L35.22 14.5746Z" fill="url(#paint3_linear_1_358)"/>
<path opacity="0.2" fill-rule="evenodd" clip-rule="evenodd" d="M35.1282 23.1646L20.1951 31.6403C19.3607 32.1196 18.6167 32.0862 18.1369 31.6514L18.0563 31.732L18.1369 31.8C18.6167 32.2335 19.3607 32.2682 20.1951 31.7889L35.2311 23.2562L35.1282 23.1646Z" fill="black"/>
<path opacity="0.12" fill-rule="evenodd" clip-rule="evenodd" d="M40.2517 20.2512L35.1173 23.1645L35.2091 23.2562L40.2405 20.3999C40.9609 19.9887 41.3155 19.4524 41.3155 18.9148C41.2696 19.4066 40.9039 19.8748 40.2517 20.2512Z" fill="black"/>
<path opacity="0.25" fill-rule="evenodd" clip-rule="evenodd" d="M20.1838 6.19059L40.2512 17.5796C40.9034 17.9449 41.2692 18.4242 41.3262 18.916C41.3262 18.3798 40.9716 17.8421 40.2512 17.4309L20.1838 6.04194C18.7431 5.21951 17.5763 5.90441 17.5763 7.54927V7.69791C17.5763 6.05306 18.7431 5.37928 20.1838 6.19059Z" fill="white"/>
<path fill-rule="evenodd" clip-rule="evenodd" d="M50.8632 22.7145C50.8632 18.8845 54.0857 15.7661 57.9197 15.7661C60.0393 15.7661 61.5474 16.5976 62.6855 17.6804L61.3456 19.0189C60.5322 18.2561 59.4293 17.6643 57.9182 17.6643C55.1184 17.6643 52.9301 19.9162 52.9301 22.7131C52.9301 25.51 55.1184 27.7648 57.9168 27.7648C59.7321 27.7648 60.7648 27.037 61.4275 26.3736C61.9702 25.8315 62.3256 25.0526 62.4631 23.9844H57.9197V22.0906H64.315C64.3823 22.4296 64.4174 22.8358 64.4174 23.2757C64.4174 24.6975 64.0269 26.4613 62.7703 27.7165C61.5474 28.9879 59.9881 29.6659 57.9182 29.6659C54.0828 29.6659 50.8602 26.5504 50.8602 22.7175L50.8632 22.7145ZM69.587 20.7155C67.1104 20.7155 65.0889 22.5976 65.0889 25.1885C65.0889 27.7662 67.109 29.6615 69.587 29.6615C72.0649 29.6615 74.0821 27.7633 74.0821 25.187C74.0821 22.5962 72.0635 20.714 69.587 20.7155ZM69.587 27.9021C68.2309 27.9021 67.0592 26.7842 67.0592 25.19C67.0592 23.5796 68.2295 22.4778 69.587 22.4778C70.943 22.4778 72.1132 23.5782 72.1132 25.19C72.1132 26.7828 70.9444 27.9021 69.587 27.9021ZM79.395 20.7155C76.9185 20.7155 74.8998 22.5976 74.8998 25.1885C74.8998 27.7662 76.9185 29.6615 79.395 29.6615C81.8715 29.6615 83.8902 27.7633 83.8902 25.187C83.8902 22.5962 81.873 20.714 79.395 20.7155ZM79.395 27.9021C78.039 27.9021 76.8673 26.7842 76.8673 25.19C76.8673 23.5796 78.0375 22.4778 79.395 22.4778C80.751 22.4778 81.9227 23.5782 81.9227 25.19C81.9227 26.7828 80.751 27.9021 79.395 27.9021ZM91.4324 20.9873V21.715H91.3651C90.9248 21.1875 90.0763 20.714 89.0085 20.714C86.769 20.714 84.7137 22.6809 84.7137 25.2075C84.7137 27.7136 86.7675 29.6644 89.0085 29.6644C90.0763 29.6644 90.9248 29.191 91.3651 28.6488H91.4324V29.2918C91.4324 31.003 90.5166 31.9192 89.0407 31.9192C87.8353 31.9192 87.0893 31.0541 86.7836 30.3279L85.0692 31.0395C85.5607 32.2246 86.8684 33.683 89.0392 33.683C91.3446 33.683 93.296 32.3254 93.296 29.0215V20.9858L91.4324 20.9873ZM89.1767 27.9021C87.8207 27.9021 86.6812 26.7652 86.6812 25.2075C86.6812 23.6322 87.8193 22.4793 89.1767 22.4793C90.5166 22.4793 91.5684 23.6308 91.5684 25.2075C91.5699 26.7652 90.5181 27.9021 89.1767 27.9021ZM94.6549 16.241H96.6238V29.3926H94.6549V16.241ZM102.02 27.9021C101.02 27.9021 100.306 27.4433 99.8507 26.5475L105.839 24.0706L105.633 23.5621C105.262 22.564 104.124 20.7155 101.799 20.7155C99.4924 20.7155 97.5746 22.529 97.5746 25.19C97.5746 27.6961 99.4748 29.663 102.02 29.663C104.074 29.663 105.262 28.4106 105.753 27.68L104.226 26.6644C103.715 27.4111 103.019 27.9036 102.02 27.9021ZM101.866 22.4442C102.646 22.4442 103.307 22.8344 103.528 23.3926L99.5231 25.0541C99.4733 23.3254 100.864 22.4442 101.866 22.4442Z" fill="white"/>
<path fill-rule="evenodd" clip-rule="evenodd" d="M114.479 16.2412H109.771V29.3928H111.736V24.4113H114.48C116.658 24.4113 118.8 22.836 118.8 20.3255C118.8 17.8194 116.66 16.2427 114.483 16.2427L114.479 16.2412ZM114.53 22.5803H111.736V18.0707H114.53C115.999 18.0707 116.835 19.288 116.835 20.3255C116.835 21.3455 115.999 22.5803 114.53 22.5803ZM121.847 29.3928V16.2412H119.882V29.3928H121.847ZM130.672 29.3694V24.328C130.672 21.9928 128.925 20.6908 126.671 20.6908C125.251 20.6908 123.778 21.3177 123.168 22.7045L124.911 23.4308C125.284 22.7045 125.978 22.4663 126.708 22.4663C127.723 22.4663 128.756 23.0757 128.772 24.1599V24.2958C128.416 24.0927 127.656 23.7873 126.722 23.7873C124.843 23.7873 122.929 24.819 122.929 26.7479C122.929 28.5087 124.471 29.6412 126.199 29.6412C127.521 29.6412 128.248 29.0494 128.704 28.3568H128.772V29.3723H130.67L130.672 29.3694ZM126.437 27.8994C125.793 27.8994 124.895 27.5779 124.895 26.7844C124.895 25.7688 126.014 25.3772 126.98 25.3772C127.844 25.3772 128.25 25.5628 128.776 25.817C128.625 26.9978 127.626 27.8848 126.437 27.8994ZM137.581 20.9787L135.328 26.6792H135.261L132.923 20.9787H130.806L134.311 28.9486L132.312 33.3807H134.361L139.763 20.9787H137.581Z" fill="white"/>
<path d="M56.6402 7.80171C56.4602 7.45504 56.2102 7.19504 55.8902 7.02171C55.5702 6.84171 55.2002 6.75171 54.7802 6.75171C54.3202 6.75171 53.9102 6.85504 53.5502 7.06171C53.1902 7.26838 52.9069 7.56171 52.7002 7.94171C52.5002 8.32171 52.4002 8.76171 52.4002 9.26171C52.4002 9.76171 52.5002 10.205 52.7002 10.5917C52.9069 10.9717 53.1902 11.265 53.5502 11.4717C53.9102 11.6784 54.3202 11.7817 54.7802 11.7817C55.4002 11.7817 55.9036 11.6084 56.2902 11.2617C56.6769 10.915 56.9136 10.445 57.0002 9.85171H54.3902V8.94171H58.2202V9.83171C58.1469 10.3717 57.9536 10.8684 57.6402 11.3217C57.3336 11.775 56.9302 12.1384 56.4302 12.4117C55.9369 12.6784 55.3869 12.8117 54.7802 12.8117C54.1269 12.8117 53.5302 12.6617 52.9902 12.3617C52.4502 12.055 52.0202 11.6317 51.7002 11.0917C51.3869 10.5517 51.2302 9.94171 51.2302 9.26171C51.2302 8.58171 51.3869 7.97171 51.7002 7.43171C52.0202 6.89171 52.4502 6.47171 52.9902 6.17171C53.5369 5.86504 54.1336 5.71171 54.7802 5.71171C55.5202 5.71171 56.1769 5.89504 56.7502 6.26171C57.3302 6.62171 57.7502 7.13504 58.0102 7.80171H56.6402ZM60.6846 6.72171V8.76171H63.0846V9.69171H60.6846V11.8217H63.3846V12.7517H59.5446V5.79171H63.3846V6.72171H60.6846ZM69.4787 5.80171V6.73171H67.6287V12.7517H66.4887V6.73171H64.6287V5.80171H69.4787ZM74.7709 5.80171V12.7517H73.6309V5.80171H74.7709ZM80.9577 5.80171V6.73171H79.1077V12.7517H77.9677V6.73171H76.1077V5.80171H80.9577ZM88.2798 12.8217C87.6332 12.8217 87.0365 12.6717 86.4898 12.3717C85.9498 12.065 85.5198 11.6417 85.1998 11.1017C84.8865 10.555 84.7298 9.94171 84.7298 9.26171C84.7298 8.58171 84.8865 7.97171 85.1998 7.43171C85.5198 6.89171 85.9498 6.47171 86.4898 6.17171C87.0365 5.86504 87.6332 5.71171 88.2798 5.71171C88.9332 5.71171 89.5298 5.86504 90.0698 6.17171C90.6165 6.47171 91.0465 6.89171 91.3598 7.43171C91.6732 7.97171 91.8298 8.58171 91.8298 9.26171C91.8298 9.94171 91.6732 10.555 91.3598 11.1017C91.0465 11.6417 90.6165 12.065 90.0698 12.3717C89.5298 12.6717 88.9332 12.8217 88.2798 12.8217ZM88.2798 11.8317C88.7398 11.8317 89.1498 11.7284 89.5098 11.5217C89.8698 11.3084 90.1498 11.0084 90.3498 10.6217C90.5565 10.2284 90.6598 9.77504 90.6598 9.26171C90.6598 8.74838 90.5565 8.29838 90.3498 7.91171C90.1498 7.52504 89.8698 7.22838 89.5098 7.02171C89.1498 6.81504 88.7398 6.71171 88.2798 6.71171C87.8198 6.71171 87.4098 6.81504 87.0498 7.02171C86.6898 7.22838 86.4065 7.52504 86.1998 7.91171C85.9998 8.29838 85.8998 8.74838 85.8998 9.26171C85.8998 9.77504 85.9998 10.2284 86.1998 10.6217C86.4065 11.0084 86.6898 11.3084 87.0498 11.5217C87.4098 11.7284 87.8198 11.8317 88.2798 11.8317ZM98.8616 12.7517H97.7216L94.2916 7.56171V12.7517H93.1516V5.79171H94.2916L97.7216 10.9717V5.79171H98.8616V12.7517Z" fill="white"/>
</g>
<defs>
<filter id="filter0_d_1_358" x="0" y="0" width="158.215" height="46.1013" filterUnits="userSpaceOnUse" color-interpolation-filters="sRGB">
<feFlood flood-opacity="0" result="BackgroundImageFix"/>
<feColorMatrix in="SourceAlpha" type="matrix" values="0 0 0 0 0 0 0 0 0 0 0 0 0 0 0 0 0 0 127 0" result="hardAlpha"/>
<feOffset dy="4"/>
<feGaussianBlur stdDeviation="2"/>
<feComposite in2="hardAlpha" operator="out"/>
<feColorMatrix type="matrix" values="0 0 0 0 0 0 0 0 0 0 0 0 0 0 0 0 0 0 0.25 0"/>
<feBlend mode="normal" in2="BackgroundImageFix" result="effect1_dropShadow_1_358"/>
<feBlend mode="normal" in="SourceGraphic" in2="effect1_dropShadow_1_358" result="shape"/>
</filter>
<linearGradient id="paint0_linear_1_358" x1="29.7417" y1="7.30487" x2="9.32169" y2="12.7514" gradientUnits="userSpaceOnUse">
<stop stop-color="#00A0FF"/>
<stop offset="0.007" stop-color="#00A1FF"/>
<stop offset="0.26" stop-color="#00BEFF"/>
<stop offset="0.512" stop-color="#00D2FF"/>
<stop offset="0.76" stop-color="#00DFFF"/>
<stop offset="1" stop-color="#00E3FF"/>
</linearGradient>
<linearGradient id="paint1_linear_1_358" x1="42.1277" y1="18.9153" x2="17.2265" y2="18.9153" gradientUnits="userSpaceOnUse">
<stop stop-color="#FFE000"/>
<stop offset="0.409" stop-color="#FFBD00"/>
<stop offset="0.775" stop-color="#FFA500"/>
<stop offset="1" stop-color="#FF9C00"/>
</linearGradient>
<linearGradient id="paint2_linear_1_358" x1="32.8576" y1="21.2765" x2="16.4871" y2="48.8575" gradientUnits="userSpaceOnUse">
<stop stop-color="#FF3A44"/>
<stop offset="1" stop-color="#C31162"/>
</linearGradient>
<linearGradient id="paint3_linear_1_358" x1="14.8155" y1="-1.46249" x2="22.1188" y2="10.8556" gradientUnits="userSpaceOnUse">
<stop stop-color="#32A071"/>
<stop offset="0.069" stop-color="#2DA771"/>
<stop offset="0.476" stop-color="#15CF74"/>
<stop offset="0.801" stop-color="#06E775"/>
<stop offset="1" stop-color="#00F076"/>
</linearGradient>
</defs>
</svg>
