<svg width="141" height="108" viewBox="0 0 141 108" fill="none" xmlns="http://www.w3.org/2000/svg">
<path d="M31.7192 20.1949C31.7051 21.0465 31.691 21.9107 31.6773 22.8038H26.2045C26.2159 22.0586 26.2278 21.3391 26.2395 20.6275L26.2481 20.108C26.2627 19.2238 26.2771 18.4406 26.291 17.6893C26.3523 14.373 26.402 11.6798 26.402 3.68506V1H114.597V3.68506C114.597 11.6812 114.647 14.3739 114.708 17.691C114.722 18.4417 114.736 19.2245 114.751 20.108L114.759 20.5679C114.771 21.2989 114.783 22.0378 114.794 22.8038H109.322L109.319 22.6483C109.306 21.8103 109.293 20.9969 109.28 20.1949C109.264 19.2312 109.248 18.4104 109.233 17.6289C109.18 14.8838 109.137 12.6251 109.127 6.37012H31.872C31.8622 12.6226 31.8188 14.882 31.766 17.6255L31.766 17.628C31.7509 18.4097 31.7351 19.2308 31.7192 20.1949Z" fill="white"/>
<path fill-rule="evenodd" clip-rule="evenodd" d="M24.6024 26.6534C19.5982 26.6534 15.5397 30.5141 15.5397 35.5475C15.5397 40.5805 19.5982 44.4408 24.6024 44.4408C29.6062 44.4408 33.6647 40.5805 33.6647 35.5475C33.6647 30.5141 29.6062 26.6534 24.6024 26.6534ZM24.6024 30.4649C27.4403 30.4649 29.681 32.493 29.681 35.5475C29.681 38.6012 27.4403 40.6293 24.6024 40.6293C21.7642 40.6293 19.5234 38.6012 19.5234 35.5475C19.5234 32.493 21.7642 30.4649 24.6024 30.4649Z" fill="white"/>
<path d="M53.4077 36.0357C53.4077 41.2648 49.6978 44.4408 44.8183 44.4408C39.3409 44.4408 35.4073 40.4828 35.4073 35.5717C35.4073 30.6118 39.4156 26.6534 44.5444 26.6534C47.8805 26.6534 50.6936 28.2658 52.1627 30.563L48.7769 32.4687C48.0548 31.3446 46.4863 30.4649 44.5198 30.4649C41.5816 30.4649 39.391 32.5906 39.391 35.5963C39.391 38.5036 41.4821 40.6293 44.868 40.6293C47.1836 40.6293 48.702 39.6278 49.3245 37.9903H44.669V34.5702H53.4077V36.0357Z" fill="white"/>
<path d="M55.6488 26.9948V38.5766C55.6488 42.2416 58.5367 44.4404 62.3707 44.4404C66.2047 44.4404 69.0927 42.2416 69.0927 38.5766V26.9948H65.109V38.2344C65.109 39.5293 64.4865 40.6289 62.3707 40.6289C60.2544 40.6289 59.632 39.5293 59.632 38.2344V26.9948H55.6488Z" fill="white"/>
<path d="M83.1599 40.3359V44.0986H72.2056V26.9948H83.0354V30.7579H76.1893V33.5921H82.4129V37.306H76.1893V40.3359H83.1599Z" fill="white"/>
<path d="M89.6622 44.0986V26.9948H85.6786V44.0986H89.6622Z" fill="white"/>
<path fill-rule="evenodd" clip-rule="evenodd" d="M98.7457 38.479H96.8536V44.0986H92.8698V26.9948H99.841C103.152 26.9948 105.816 29.6095 105.816 32.8589C105.816 34.9604 104.522 36.8662 102.604 37.8192L106.314 44.0986H102.032L98.7457 38.479ZM96.8536 35.058H99.841C100.936 35.058 101.833 34.1054 101.833 32.8589C101.833 31.6129 100.936 30.6602 99.841 30.6602H96.8536V35.058Z" fill="white"/>
<path fill-rule="evenodd" clip-rule="evenodd" d="M116.497 26.6534C111.493 26.6534 107.434 30.5141 107.434 35.5475C107.434 40.5805 111.493 44.4408 116.497 44.4408C121.501 44.4408 125.559 40.5805 125.559 35.5475C125.559 30.5141 121.501 26.6534 116.497 26.6534ZM116.497 30.4649C119.335 30.4649 121.576 32.493 121.576 35.5475C121.576 38.6012 119.335 40.6293 116.497 40.6293C113.659 40.6293 111.418 38.6012 111.418 35.5475C111.418 32.493 113.659 30.4649 116.497 30.4649Z" fill="white"/>
<path d="M126.556 40.2141L129.992 38.2591C130.614 39.6766 131.685 40.6293 133.651 40.6293C135.543 40.6293 136.017 39.8965 136.017 39.2364C136.017 38.186 135.021 37.7708 132.406 37.0623C129.817 36.3533 127.278 35.1319 127.278 31.8578C127.278 28.5592 130.116 26.6534 133.129 26.6534C135.992 26.6534 138.233 27.9975 139.502 30.5141L136.141 32.4442C135.543 31.2227 134.722 30.4649 133.129 30.4649C131.884 30.4649 131.262 31.0758 131.262 31.7602C131.262 32.5418 131.685 33.0796 134.398 33.8855C137.038 34.6678 140 35.5717 140 39.1875C140 42.4862 137.311 44.4408 133.527 44.4408C129.867 44.4408 127.527 42.7307 126.556 40.2141Z" fill="white"/>
<path d="M87.6706 22.966C89.0189 22.966 90.1119 21.8933 90.1119 20.5701C90.1119 19.2469 89.0189 18.1742 87.6706 18.1742C86.3223 18.1742 85.2293 19.2469 85.2293 20.5701C85.2293 21.8933 86.3223 22.966 87.6706 22.966Z" fill="white"/>
<path d="M4.46699 26.9948V30.9039H9.19108V38.6008C9.19108 39.6516 8.66805 40.6289 6.9256 40.6289C5.5807 40.6289 5.00835 40.1156 4.46069 39.1629L1 41.1175C2.1455 43.292 4.13709 44.4404 6.90051 44.4404C10.4857 44.4404 13.1743 42.3636 13.1743 38.6008V26.9948H4.46699Z" fill="white"/>
<path fill-rule="evenodd" clip-rule="evenodd" d="M109.328 48.9466H114.801C114.822 50.3948 114.843 50.9674 114.861 51.4606C114.896 52.4151 114.919 53.0724 114.919 59.2021V63.4069C114.919 87.4441 94.9928 107 70.4997 107C46.0069 107 26.0803 87.4441 26.0803 63.4069V59.2021C26.0803 53.0687 26.104 52.4143 26.1386 51.4589C26.1564 50.9661 26.1772 50.3932 26.199 48.9466H31.6717C31.6714 48.9724 109.328 48.9724 109.328 48.9466ZM70.4997 101.63C91.9756 101.63 109.447 84.483 109.447 63.4069V59.2021C109.447 55.7752 109.44 55.7279 109.427 55.6485C109.418 55.5903 109.406 55.5149 109.392 54.0769H84.1642C83.6682 61.061 77.7422 66.5768 70.4997 66.5768C63.2575 66.5768 57.3315 61.061 56.8356 54.0769H31.6075C31.5938 55.5147 31.5818 55.5903 31.5726 55.6485C31.5601 55.7278 31.5527 55.7749 31.5527 59.2021V63.4069C31.5527 84.483 49.0241 101.63 70.4997 101.63Z" fill="white"/>
<path d="M31.7192 20.1949C31.7051 21.0465 31.691 21.9107 31.6773 22.8038H26.2045C26.2159 22.0586 26.2278 21.3391 26.2395 20.6275L26.2481 20.108C26.2627 19.2238 26.2771 18.4406 26.291 17.6893C26.3523 14.373 26.402 11.6798 26.402 3.68506V1H114.597V3.68506C114.597 11.6812 114.647 14.3739 114.708 17.691C114.722 18.4417 114.736 19.2245 114.751 20.108L114.759 20.5679C114.771 21.2989 114.783 22.0378 114.794 22.8038H109.322L109.319 22.6483C109.306 21.8103 109.293 20.9969 109.28 20.1949C109.264 19.2312 109.248 18.4104 109.233 17.6289C109.18 14.8838 109.137 12.6251 109.127 6.37012H31.872C31.8622 12.6226 31.8188 14.882 31.766 17.6255L31.766 17.628C31.7509 18.4097 31.7351 19.2308 31.7192 20.1949Z" stroke="black" stroke-opacity="0.15" stroke-width="0.5"/>
<path fill-rule="evenodd" clip-rule="evenodd" d="M24.6024 26.6534C19.5982 26.6534 15.5397 30.5141 15.5397 35.5475C15.5397 40.5805 19.5982 44.4408 24.6024 44.4408C29.6062 44.4408 33.6647 40.5805 33.6647 35.5475C33.6647 30.5141 29.6062 26.6534 24.6024 26.6534ZM24.6024 30.4649C27.4403 30.4649 29.681 32.493 29.681 35.5475C29.681 38.6012 27.4403 40.6293 24.6024 40.6293C21.7642 40.6293 19.5234 38.6012 19.5234 35.5475C19.5234 32.493 21.7642 30.4649 24.6024 30.4649Z" stroke="black" stroke-opacity="0.15" stroke-width="0.5"/>
<path d="M53.4077 36.0357C53.4077 41.2648 49.6978 44.4408 44.8183 44.4408C39.3409 44.4408 35.4073 40.4828 35.4073 35.5717C35.4073 30.6118 39.4156 26.6534 44.5444 26.6534C47.8805 26.6534 50.6936 28.2658 52.1627 30.563L48.7769 32.4687C48.0548 31.3446 46.4863 30.4649 44.5198 30.4649C41.5816 30.4649 39.391 32.5906 39.391 35.5963C39.391 38.5036 41.4821 40.6293 44.868 40.6293C47.1836 40.6293 48.702 39.6278 49.3245 37.9903H44.669V34.5702H53.4077V36.0357Z" stroke="black" stroke-opacity="0.15" stroke-width="0.5"/>
<path d="M55.6488 26.9948V38.5766C55.6488 42.2416 58.5367 44.4404 62.3707 44.4404C66.2047 44.4404 69.0927 42.2416 69.0927 38.5766V26.9948H65.109V38.2344C65.109 39.5293 64.4865 40.6289 62.3707 40.6289C60.2544 40.6289 59.632 39.5293 59.632 38.2344V26.9948H55.6488Z" stroke="black" stroke-opacity="0.15" stroke-width="0.5"/>
<path d="M83.1599 40.3359V44.0986H72.2056V26.9948H83.0354V30.7579H76.1893V33.5921H82.4129V37.306H76.1893V40.3359H83.1599Z" stroke="black" stroke-opacity="0.15" stroke-width="0.5"/>
<path d="M89.6622 44.0986V26.9948H85.6786V44.0986H89.6622Z" stroke="black" stroke-opacity="0.15" stroke-width="0.5"/>
<path fill-rule="evenodd" clip-rule="evenodd" d="M98.7457 38.479H96.8536V44.0986H92.8698V26.9948H99.841C103.152 26.9948 105.816 29.6095 105.816 32.8589C105.816 34.9604 104.522 36.8662 102.604 37.8192L106.314 44.0986H102.032L98.7457 38.479ZM96.8536 35.058H99.841C100.936 35.058 101.833 34.1054 101.833 32.8589C101.833 31.6129 100.936 30.6602 99.841 30.6602H96.8536V35.058Z" stroke="black" stroke-opacity="0.15" stroke-width="0.5"/>
<path fill-rule="evenodd" clip-rule="evenodd" d="M116.497 26.6534C111.493 26.6534 107.434 30.5141 107.434 35.5475C107.434 40.5805 111.493 44.4408 116.497 44.4408C121.501 44.4408 125.559 40.5805 125.559 35.5475C125.559 30.5141 121.501 26.6534 116.497 26.6534ZM116.497 30.4649C119.335 30.4649 121.576 32.493 121.576 35.5475C121.576 38.6012 119.335 40.6293 116.497 40.6293C113.659 40.6293 111.418 38.6012 111.418 35.5475C111.418 32.493 113.659 30.4649 116.497 30.4649Z" stroke="black" stroke-opacity="0.15" stroke-width="0.5"/>
<path d="M126.556 40.2141L129.992 38.2591C130.614 39.6766 131.685 40.6293 133.651 40.6293C135.543 40.6293 136.017 39.8965 136.017 39.2364C136.017 38.186 135.021 37.7708 132.406 37.0623C129.817 36.3533 127.278 35.1319 127.278 31.8578C127.278 28.5592 130.116 26.6534 133.129 26.6534C135.992 26.6534 138.233 27.9975 139.502 30.5141L136.141 32.4442C135.543 31.2227 134.722 30.4649 133.129 30.4649C131.884 30.4649 131.262 31.0758 131.262 31.7602C131.262 32.5418 131.685 33.0796 134.398 33.8855C137.038 34.6678 140 35.5717 140 39.1875C140 42.4862 137.311 44.4408 133.527 44.4408C129.867 44.4408 127.527 42.7307 126.556 40.2141Z" stroke="black" stroke-opacity="0.15" stroke-width="0.5"/>
<path d="M87.6706 22.966C89.0189 22.966 90.1119 21.8933 90.1119 20.5701C90.1119 19.2469 89.0189 18.1742 87.6706 18.1742C86.3223 18.1742 85.2293 19.2469 85.2293 20.5701C85.2293 21.8933 86.3223 22.966 87.6706 22.966Z" stroke="black" stroke-opacity="0.15" stroke-width="0.5"/>
<path d="M4.46699 26.9948V30.9039H9.19108V38.6008C9.19108 39.6516 8.66805 40.6289 6.9256 40.6289C5.5807 40.6289 5.00835 40.1156 4.46069 39.1629L1 41.1175C2.1455 43.292 4.13709 44.4404 6.90051 44.4404C10.4857 44.4404 13.1743 42.3636 13.1743 38.6008V26.9948H4.46699Z" stroke="black" stroke-opacity="0.15" stroke-width="0.5"/>
<path fill-rule="evenodd" clip-rule="evenodd" d="M109.328 48.9466H114.801C114.822 50.3948 114.843 50.9674 114.861 51.4606C114.896 52.4151 114.919 53.0724 114.919 59.2021V63.4069C114.919 87.4441 94.9928 107 70.4997 107C46.0069 107 26.0803 87.4441 26.0803 63.4069V59.2021C26.0803 53.0687 26.104 52.4143 26.1386 51.4589C26.1564 50.9661 26.1772 50.3932 26.199 48.9466H31.6717C31.6714 48.9724 109.328 48.9724 109.328 48.9466ZM70.4997 101.63C91.9756 101.63 109.447 84.483 109.447 63.4069V59.2021C109.447 55.7752 109.44 55.7279 109.427 55.6485C109.418 55.5903 109.406 55.5149 109.392 54.0769H84.1642C83.6682 61.061 77.7422 66.5768 70.4997 66.5768C63.2575 66.5768 57.3315 61.061 56.8356 54.0769H31.6075C31.5938 55.5147 31.5818 55.5903 31.5726 55.6485C31.5601 55.7278 31.5527 55.7749 31.5527 59.2021V63.4069C31.5527 84.483 49.0241 101.63 70.4997 101.63Z" stroke="black" stroke-opacity="0.15" stroke-width="0.5"/>
</svg>
