<svg width="110" height="219" viewBox="0 0 110 219" fill="none" xmlns="http://www.w3.org/2000/svg">
<g opacity="0.5">
<mask id="path-1-inside-1_1_314" fill="white">
<path d="M109.5 0C95.1203 -1.71477e-07 80.8813 2.8323 67.5962 8.33519C54.311 13.8381 42.2398 21.9038 32.0718 32.0718C21.9038 42.2398 13.8381 54.311 8.33519 67.5962C2.8323 80.8813 -4.57082e-07 95.1203 0 109.5C4.57082e-07 123.88 2.8323 138.119 8.33519 151.404C13.8381 164.689 21.9038 176.76 32.0718 186.928C42.2398 197.096 54.311 205.162 67.5962 210.665C80.8813 216.168 95.1203 219 109.5 219V163.661C102.388 163.661 95.3447 162.26 88.7736 159.538C82.2025 156.816 76.2319 152.827 71.2026 147.797C66.1733 142.768 62.1838 136.798 59.462 130.226C56.7402 123.655 55.3393 116.612 55.3393 109.5C55.3393 102.388 56.7402 95.3447 59.462 88.7736C62.1838 82.2025 66.1733 76.2319 71.2026 71.2026C76.2319 66.1733 82.2025 62.1838 88.7736 59.462C95.3447 56.7402 102.388 55.3393 109.5 55.3393V0Z"/>
</mask>
<path d="M109.5 0C95.1203 -1.71477e-07 80.8813 2.8323 67.5962 8.33519C54.311 13.8381 42.2398 21.9038 32.0718 32.0718C21.9038 42.2398 13.8381 54.311 8.33519 67.5962C2.8323 80.8813 -4.57082e-07 95.1203 0 109.5C4.57082e-07 123.88 2.8323 138.119 8.33519 151.404C13.8381 164.689 21.9038 176.76 32.0718 186.928C42.2398 197.096 54.311 205.162 67.5962 210.665C80.8813 216.168 95.1203 219 109.5 219V163.661C102.388 163.661 95.3447 162.26 88.7736 159.538C82.2025 156.816 76.2319 152.827 71.2026 147.797C66.1733 142.768 62.1838 136.798 59.462 130.226C56.7402 123.655 55.3393 116.612 55.3393 109.5C55.3393 102.388 56.7402 95.3447 59.462 88.7736C62.1838 82.2025 66.1733 76.2319 71.2026 71.2026C76.2319 66.1733 82.2025 62.1838 88.7736 59.462C95.3447 56.7402 102.388 55.3393 109.5 55.3393V0Z" stroke="#42BD3D" stroke-width="114" mask="url(#path-1-inside-1_1_314)"/>
</g>
</svg>
