<svg width="27" height="27" viewBox="0 0 27 27" fill="none" xmlns="http://www.w3.org/2000/svg">
<path d="M13.397 2.37866C19.469 2.37866 24.391 7.30066 24.391 13.3726C24.391 19.4446 19.469 24.3666 13.397 24.3666C7.32508 24.3666 2.40308 19.4446 2.40308 13.3726C2.40308 7.30066 7.32508 2.37866 13.397 2.37866ZM15.233 17.7702H11.5611L10.0439 19.8558L10.653 21.7313C11.5387 22.0214 12.465 22.1688 13.397 22.1678C14.3546 22.1678 15.277 22.0139 16.1411 21.7313L16.7491 19.8558L15.2319 17.7702H15.233ZM6.02449 12.1325L4.60407 13.1626L4.60187 13.3726C4.60187 15.2746 5.20544 17.0347 6.23118 18.4738H8.33102L9.78553 16.4729L8.65535 12.9878L6.02449 12.1325V12.1325ZM20.7696 12.1325L18.1387 12.9878L17.0086 16.4729L18.462 18.4738H20.5618C21.6247 16.9855 22.1949 15.2016 22.1922 13.3726L22.1889 13.1637L20.7696 12.1325V12.1325ZM13.397 10.6637L10.8201 12.5349L11.8051 15.5714H14.9879L15.9729 12.5349L13.397 10.6637ZM15.9158 4.94356L14.4964 5.97699V8.74417L17.4582 10.8957L19.9198 10.0964L20.5288 8.22416C19.3939 6.65297 17.7724 5.4999 15.9158 4.94356V4.94356ZM10.8772 4.94356C9.0208 5.50041 7.39978 6.65386 6.26526 8.22525L6.87432 10.0964L9.33587 10.8957L12.2976 8.74417V5.97699L10.8772 4.94356V4.94356Z" fill="#42BD3D"/>
</svg>
