<svg width="1562" height="3444" viewBox="0 0 1562 3444" fill="none" xmlns="http://www.w3.org/2000/svg">
<path opacity="0.5" d="M1562 3443C1338.14 3428.67 835.121 3180.33 787.921 2766.43C740.721 2352.53 953.81 2095.1 1007.74 2011.85C1042.8 1957.73 1268.01 1731.67 1328.7 1461.05C1384.07 1214.12 1245.99 1106.58 1183.05 1086.94C1146.19 1070.49 1039.29 1054.15 906.595 1120.37C773.896 1186.6 650.367 1319.36 624.744 1472.19C618.451 1522.6 601.819 1612.28 661.156 1682.32C713.819 1744.49 828.378 1672.77 870.184 1612.28C911.99 1551.79 964.584 1429.21 906.595 1225.44C860.204 1062.43 744.767 1012.12 690.824 980.282C663.853 969.139 666.55 964.681 445.385 902.277C224.219 839.874 193.202 620.506 214.779 521.806C262.363 304.144 522.253 311.671 568.104 521.806C588.566 615.578 499.328 902.277 257.935 795.618C64.8194 710.29 8.71407 506.986 1.81533 415.146C-8.18993 281.951 74.2791 12.7507 227.681 1" stroke="#42BD3D" stroke-width="2" stroke-linecap="round" stroke-dasharray="4 4"/>
</svg>
