<svg width="44" height="46" viewBox="0 0 44 46" fill="none" xmlns="http://www.w3.org/2000/svg">
<path d="M0 4.74976C0 2.92566 2.16481 1.96801 3.51454 3.19503L43.3122 39.3748C43.7503 39.773 44 40.3375 44 40.9295C44 42.7536 41.8352 43.7112 40.4855 42.4842L0.687765 6.30449C0.249729 5.90627 0 5.34175 0 4.74976Z" fill="white"/>
<path d="M0 41.2503C0 40.6583 0.249728 40.0938 0.687764 39.6956L40.4855 3.51584C41.8352 2.28882 44 3.24646 44 5.07056C44 5.66255 43.7503 6.22707 43.3122 6.62529L3.51454 42.805C2.16482 44.032 0 43.0744 0 41.2503Z" fill="white"/>
</svg>
